/* XPM */
static const char * daemonreset_xpm[] = {
"22 22 5 1",
" 	c None",
".	c #000000",
"+	c #C0C0C0",
"@	c #FF6600",
"#	c #404040",
"                      ",
"........              ",
".++++++.              ",
".++++++.              ",
".++++++.              ",
".++++++.              ",
".++++++.              ",
".++++++.       @@@    ",
".++++++.       @@@    ",
".++++++.       @@@    ",
".++++++.       @@@    ",
".++++++.       @@@    ",
".++++++.       @@@    ",
".++++++.       @@@    ",
".+####+.     @@@@@@@  ",
".++++++.      @@@@@   ",
".+####+.       @@@    ",
".++++++.        @     ",
".+####+.              ",
".++++++.    @@@@@@@@@ ",
"........    @@@@@@@@@ ",
"                      "};
