/* XPM */
static const char * dkw_links_st3_xpm[] = {
"108 27 9 1",
" 	c None",
".	c #303030",
"+	c #000000",
"@	c #666666",
"#	c #FFFF00",
"$	c #333333",
"%	c #808000",
"&	c #DCDCDC",
"*	c #585858",
"                                                                                                            ",
"                                                                                                            ",
"                     .+++++                     .+++++                     .+++++                     .+++++",
"                    ++@@+++                    ++##+++                    ++##+++                    ++@@+++",
"                   .+$@@+++                   .+%##+++                   .+%##+++                   .+$@@+++",
"                  .+@@@@+.                   .+####+.                   .+####+.                   .+@@@@+. ",
"              .  ++@@@$+.                .  ++###%+.                .  ++###%+.                .  ++@@@$+.  ",
"             .+ .+$@@@++                .+ .+%###++                .+ .+%###++                .+ .+$@@@++   ",
"           ++.  +@@@@+.               ++.  +####+.               ++.  +####+.               ++.  +@@@@+.    ",
"          +   +++@@$+.               +   +++##%+.               +   +++##%+.               +   +++@@$+.     ",
"          .   +++@@++                .   +++##++                .   +++##++                .   +++@@++      ",
" +++++++++++&&++++++++++++  +++++++++++&&++++++++++++  +++++++++++&&++++++++++++  +++++++++++&&++++++++++++ ",
" ++#######+&++&++#######++  ++#######+&++&++@@@@@@@++  ++@@@@@@@+&++&++@@@@@@@++  ++@@@@@@@+&++&++#######++ ",
" ++#######+&++&++#######++  ++#######+&++&++@@@@@@@++  ++@@@@@@@+&++&++@@@@@@@++  ++@@@@@@@+&++&++#######++ ",
" ++#######+&++&++#######++  ++#######+&++&++@@@@@@@++  ++@@@@@@@+&++&++@@@@@@@++  ++@@@@@@@+&++&++#######++ ",
" ++%%%%%%%++&&+++%%%%%%%++  ++%%%%%%%++&&+++*******++  ++*******++&&+++*******++  ++*******++&&+++%%%%%%%++ ",
" +++++++++++&&++++++++++++  +++++++++++&&++++++++++++  +++++++++++&&++++++++++++  +++++++++++&&++++++++++++ ",
"     .+@@++++  ++               .+@@++++  ++               .+##++++  ++               .+##++++  ++          ",
"    ++@@@++ ++++               ++@@@++ ++++               ++###++ ++++               ++###++ ++++           ",
"   .+$@@@++ ++++              .+$@@@++ ++++              .+%###++ ++++              .+%###++ ++++           ",
"  .+@@@@+. +                 .+@@@@+. +                 .+####+. +                 .+####+. +               ",
" ++@@@$+.                   ++@@@$+.                   ++###%+.                   ++###%+.                  ",
".+$@@@++                   .+$@@@++                   .+%###++                   .+%###++                   ",
"++@@$+.                    ++@@$+.                    ++##%+.                    ++##%+.                    ",
"++++..                     ++++..                     ++++..                     ++++..                     ",
"++++.                      ++++.                      ++++.                      ++++.                      ",
"                                                                                                            "};
