/* XPM */
static const char*entkoppler_st1_xpm[]={
"57 30 2 1",
"# c #000000",
". c None",
".........................................................",
".........................................................",
".........................................................",
".........................................................",
"........##########.......................................",
".......############......................................",
"......##############.....................................",
"............##...........................................",
"............##...........................................",
"............##.........................##########........",
"............##........................############.......",
"............##.......................##############......",
"............##.............................##............",
"...........#####.........................#####...........",
"..........#.....#.......................#.....#..........",
".........#.......#.....................#.......#.........",
"........#..#...#..#...................#..#...#..#........",
"........#..##.##..#...................#..##.##..#........",
"........#..#.#.#..#...................#..#.#.#..#........",
"........#..#...#..#...................#..#...#..#........",
"........#..#...#..#...................#..#...#..#........",
".........#.......#.....................#.......#.........",
"..........#.....#.......................#.....#..........",
"...........#####.........................#####...........",
"............##.............................##............",
"............##.............................##............",
"......##############.................##############......",
"......##############.................##############......",
".........................................................",
"........................................................."};
