/* XPM */
static const char* filesaveas_xpm[] = {
"22 22 6 1",
" 	c None",
".	c #000000",
"+	c #848200",
"@	c #C1C1C1",
"#	c #0000C0",
"$	c #CAB5D1",
"                      ",
" .................... ",
" .++.@@@@@@@@@@@@.@@. ",
" .++.@##@@@@@@##@.@@. ",
" .++.@#@@@@@@@$#@.... ",
" .++.@#@$$@@@@@#@.++. ",
" .++.@#@$$@@@@@#@.++. ",
" .++.@#@##@@##@#@.++. ",
" .++.@#@@@@@@@@#@.++. ",
" .++.@##@@@@@@##@.++. ",
" .++.@@@@@@@@@@@@.++. ",
" .+++............+++. ",
" .++++++++++++++++++. ",
" .++++++++++++++++++. ",
" .+++.............++. ",
" .+++.........@@@.++. ",
" .+++.........@@@.++. ",
" .+++.........@@@.++. ",
" .+++.........@@@.++. ",
" .+++.........@@@.++. ",
"  ..................  ",
"                      "};
