/* XPM */
static const char * label_aus_on_xpm[] = {
"19 9 3 1",
" 	c None",
".	c #000000",
"+	c #FFE100",
"...................",
".+++++++++++++++++.",
".++++.+++++++++..+.",
".+++.+.++.++.+.+++.",
".+++...++.++.++.++.",
".++.+++.+..+.+++.+.",
".++.+++.+.+..+..++.",
".+++++++++++++++++.",
"..................."};
