/* XPM */
static const char * label_sgt_xpm[] = {
"19 9 3 1",
" 	c None",
".	c #000000",
"#	c #FFFFFF",
"...................",
".#################.",
".##...##...#.....#.",
".#.####.######.###.",
".##..##.#..###.###.",
".####.#.##.###.###.",
".#...###..####.###.",
".#################.",
"..................."};
