/* XPM */
static const char * route_clear_xpm[] = {
"22 22 2 1",
" 	c None",
".	c #C00000",
"                      ",
"                      ",
"                      ",
"                      ",
"                      ",
"                      ",
"      ..       .      ",
"      ..     ...      ",
"       ...  ..        ",
"        .....         ",
"         ...          ",
"         ....         ",
"        ..  ..        ",
"       ..    ..       ",
"       .     ..       ",
"      .       .       ",
"                      ",
"                      ",
"                      ",
"                      ",
"                      ",
"                      "};
