/* XPM */
static const char * route_new_xpm[] = {
"22 22 4 1",
" 	c None",
".	c #5C5C5C",
"+	c #252525",
"@	c #000000",
"                      ",
"                      ",
"                      ",
"                      ",
"                      ",
"                      ",
"         ...          ",
"         .+@          ",
"         .+@          ",
"      ....+++..       ",
"      .+++++++@       ",
"      .@@+++@@@       ",
"         ++@          ",
"         .+@          ",
"         .@@          ",
"                      ",
"                      ",
"                      ",
"                      ",
"                      ",
"                      ",
"                      "};
