/* XPM */
static const char * route_stop_xpm[] = {
"22 22 45 1",
" 	c None",
".	c #008000",
"+	c #FF6969",
"@	c #FF7070",
"#	c #FF5353",
"$	c #127700",
"%	c #107800",
"&	c #FF7979",
"*	c #FFF7F7",
"=	c #FFFFFF",
"-	c #FFE3E3",
";	c #FF4C4C",
">	c #FF0000",
",	c #FF5A5A",
"'	c #FF6060",
")	c #FF1E1E",
"!	c #FFB9B9",
"~	c #FFEFEF",
"{	c #DEDEDE",
"]	c #A7A7A7",
"^	c #FF5050",
"/	c #FF8787",
"(	c #1A0000",
"_	c #3F2F2F",
":	c #5A4A4A",
"<	c #231313",
"[	c #FFAFAF",
"}	c #FFBFBF",
"|	c #FF8181",
"1	c #001800",
"2	c #000000",
"3	c #020202",
"4	c #181818",
"5	c #007D00",
"6	c #001C00",
"7	c #030000",
"8	c #1E0000",
"9	c #007000",
"0	c #680000",
"a	c #CF0000",
"b	c #280000",
"c	c #006800",
"d	c #300000",
"e	c #9D0000",
"f	c #100000",
"                      ",
"                      ",
"                      ",
"                      ",
"     ..               ",
"     ..               ",
"     ..               ",
"     ..               ",
"     ..         +@@#  ",
"     $%        &*==-; ",
"  >,'''''''''')!====~>",
"  >~={]=======^=====~>",
"  >~==========^=====~>",
"  >,'''''''''')!====/ ",
"     $% (_:<    [}}|  ",
"     ..12342          ",
"    25.62782          ",
"    29.  0ab          ",
"    c5.. def          ",
"    ....  2           ",
"    ....              ",
"     ...              "};
