/* XPM */
static const char*signal_hs_st3_xpm[]={
"57 30 6 1",
"b c #00ff00",
"# c #000000",
"d c #ffff00",
". c None",
"a c #585858",
"c c #ff0000",
".........................................................",
".........................................................",
".........................................................",
".....#####.........#####.........#####...................",
"....#######.......#######.......#######..................",
"...#########.....#########.....#########.................",
"...#########.....#########.....#########.................",
"...#########.....#########.....#########.................",
"...#########.....#########.....#########.................",
"...#########.....#########.....#########.................",
"...#########.....#########.....#########.................",
"...##a###a##.....##a###b##.....##a###b##.................",
"...#aaa#aaa#.....#aaa#bbb#.....#aaa#bbb#.................",
"...##a###a##.....##a###b##.....##a###b##.................",
"...#########.....#########.....#########.................",
"...#########.....#########.....#########.................",
"...#########.....#########.....#########.................",
"...#########.....#########.....#########.................",
"...#########.....#########.....#########.................",
"...#########.....#########.....#########.................",
"...#########.....#########.....#########.................",
"...#########.....#########.....#########.................",
"...##c###a##.....##a###a##.....##a###d##.................",
"...#ccc#aaa#.....#aaa#aaa#.....#aaa#ddd#.................",
"...##c###a##.....##a###a##.....##a###d##.................",
"...#########.....#########.....#########.................",
"...#########.....#########.....#########.................",
".........................................................",
".........................................................",
"........................................................."};
