/* XPM */
static const char *signal_vs_st3_xpm[]={
"57 30 5 1",
". c None",
"# c #000000",
"b c #00ff00",
"a c #808080",
"c c #ffff00",
".........................................................",
".........................................................",
".........................................................",
".........................................................",
".........................................................",
".........................................................",
".........................................................",
".........................................................",
".........................................................",
".........................................................",
"........#####..........#####..........#####..............",
".......#######........#######........#######.............",
"......##a###a##......##b###b##......##a###b##............",
".....##aaa#aaa#.....##bbb#bbb#.....##aaa#bbb#............",
"....####a###a##....####b###b##....####a###b##............",
"...###########....###########....###########.............",
"..###########....###########....###########..............",
"..##c###c###.....##a###a###.....##c###a###...............",
"..#ccc#ccc#......#aaa#aaa#......#ccc#aaa#................",
"..##c###c#.......##a###a#.......##c###a#.................",
"...######.........######.........######..................",
"....####...........####...........####...................",
".........................................................",
".........................................................",
".........................................................",
".........................................................",
".........................................................",
".........................................................",
".........................................................",
"........................................................."};
