/* XPM */
static const char *signal_vs_st1_xpm[]={
"57 30 5 1",
". c None",
"# c #000000",
"b c #00ff00",
"a c #808080",
"c c #ffff00",
".........................................................",
".........................................................",
".........................................................",
".........................................................",
".........................................................",
".........................................................",
".........................................................",
".........................................................",
".........................................................",
".........................................................",
"........#####..........#####.............................",
".......#######........#######............................",
"......##a###a##......##b###b##...........................",
".....##aaa#aaa#.....##bbb#bbb#...........................",
"....####a###a##....####b###b##...........................",
"...###########....###########............................",
"..###########....###########.............................",
"..##c###c###.....##a###a###..............................",
"..#ccc#ccc#......#aaa#aaa#...............................",
"..##c###c#.......##a###a#................................",
"...######.........######.................................",
"....####...........####..................................",
".........................................................",
".........................................................",
".........................................................",
".........................................................",
".........................................................",
".........................................................",
".........................................................",
"........................................................."};
