/* XPM */
static const char * spdritem_twh_xpm[] = {
"32 32 5 1",
" 	c None",
".	c #0000C6",
"+	c #000000",
"@	c #848284",
"#	c #FFFFFF",
"................................",
"................................",
"................................",
"................................",
"................................",
"................................",
"................................",
"...............+++..............",
".............++@@@++............",
".............+@@@@@+............",
"............+@@@@@@@+...........",
"............+@@@@@@@+...........",
"............+@@@@@@@+...........",
".............+@@@@@+............",
".............++@@@++............",
"...............+++..............",
"................................",
"................................",
"......++++++++++++++++++++......",
"......+##################+......",
"......+#+###+#+##+#+++++#+......",
"......+#+#+#+#+##+###+###+......",
"......+#+#+#+#++++###+###+......",
"......+#+#+#+#+##+###+###+......",
"......+##+++##+##+###+###+......",
"......+##################+......",
"......++++++++++++++++++++......",
"................................",
"................................",
"................................",
"................................",
"................................"};
