/* XPM */
static const char * spdritem_buc_xpm[] = {
"32 32 5 1",
" 	c None",
".	c #000000",
"+	c #550000",
"@	c #C60000",
"#	c #710000",
"                                ",
"                                ",
"                                ",
"                                ",
"                                ",
"                                ",
"                                ",
"                                ",
"                                ",
".++++++++++++++++++++++++++++++.",
".@@@@@@@@@@@@@@@@@@@@@@@@@@@@@@.",
".@@@@@@@@@@@@@@@@@@@@@@@@@@@@@@.",
".@@@@@@@@@@@@@@@@@@@@@@@@@@@@@@.",
".@@@@@@@@@@@@@@@@@@@@@@@@@@@@@@.",
".@@@@@@@@@@@@@@@@@@@@@@@@@@@@@@.",
".##############################.",
".##############################.",
".@@@@@@@@@@@@@@@@@@@@@@@@@@@@@@.",
".@@@@@@@@@@@@@@@@@@@@@@@@@@@@@@.",
".@@@@@@@@@@@@@@@@@@@@@@@@@@@@@@.",
".@@@@@@@@@@@@@@@@@@@@@@@@@@@@@@.",
".@@@@@@@@@@@@@@@@@@@@@@@@@@@@@@.",
".++++++++++++++++++++++++++++++.",
"                                ",
"                                ",
"                                ",
"                                ",
"                                ",
"                                ",
"                                ",
"                                ",
"                                "};
