/* XPM */
static const char * spdritem_wsl_xpm[] = {
"32 32 6 1",
" 	c None",
".	c #000000",
"+	c #848284",
"@	c #FF8200",
"#	c #DEDFDE",
"$	c #636163",
"                                ",
"         ...                    ",
"         .+.                    ",
" ...     ...                    ",
" .@.     .@.                    ",
" .@.  .  .@.                    ",
" .@@..@..@@.                    ",
"  .@.@@@.@.                     ",
"  .@.@.@.@.                     ",
"  .@@@.@@@.                     ",
"   .@...@.                      ",
"  ... . ..                      ",
"  .+. .     ....#####...........",
"  ... .     ...##$$$##..........",
"      .     ..##$$$$$##.........",
"      .     ..##$$$$$##.........",
"      .     ..##$$$$$##.........",
"      .     ...##$$$##..........",
"      .     ....#####...........",
"    .....                       ",
"    .....                       ",
"                                ",
"                                ",
"                                ",
"                                ",
"                                ",
"                                ",
"                                ",
"                                ",
"                                ",
"                                ",
"                                "};
