/* XPM */
static const char * spdritem_dtl_xpm[] = {
"32 32 19 1",
" 	c None",
".	c #000000",
"+	c #202020",
"@	c #2C2D2C",
"#	c #121212",
"$	c #A8A8A8",
"%	c #9F9F9F",
"&	c #BABBBA",
"*	c #6F6F6F",
"=	c #8F908F",
"-	c #3C3C3C",
";	c #D0D1D0",
">	c #BEBFBE",
",	c #3F403F",
"'	c #454545",
")	c #AAABAA",
"!	c #181818",
"~	c #444444",
"{	c #060606",
"....                            ",
".....                           ",
"......                          ",
".......                         ",
"........                        ",
" ........                       ",
"  ........                      ",
"   ........                     ",
"    ........                    ",
"     ........                   ",
"      ........                  ",
"       ........                 ",
"        ......+@                ",
".............#$%&               ",
".............*=.-;              ",
".............>,..>'             ",
".............>,..>,.            ",
".............*=.-)!..           ",
".............#$%&~....          ",
"               ~@{.....         ",
"                ........        ",
"                 ........       ",
"                  ........      ",
"                   ........     ",
"                    ........    ",
"                     ........   ",
"                      ........  ",
"                       ........ ",
"                        ........",
"                         .......",
"                          ......",
"                           ....."};
