/* XPM */
static const char * spdritem_tas_xpm[] = {
"32 32 5 1",
" 	c None",
".	c #DE0000",
"+	c #000000",
"@	c #848284",
"#	c #FFFFFF",
"................................",
"................................",
"................................",
"................................",
"................................",
"................................",
"................................",
"...............+++..............",
".............++@@@++............",
".............+@@@@@+............",
"............+@@@@@@@+...........",
"............+@@@@@@@+...........",
"............+@@@@@@@+...........",
".............+@@@@@+............",
".............++@@@++............",
"...............+++..............",
"................................",
"................................",
".......+++++++++++++++++++......",
".......+#################+......",
".......+##+++##+++#+++++#+......",
".......+#+####+######+###+......",
".......+##++##+#++###+###+......",
".......+####+#+##+###+###+......",
".......+#+++###++####+###+......",
".......+#################+......",
".......+++++++++++++++++++......",
"................................",
"................................",
"................................",
"................................",
"................................"};
