/* XPM */
static const char * spdritem_dtr_xpm[] = {
"32 32 19 1",
" 	c None",
".	c #000000",
"+	c #2C2D2C",
"@	c #202020",
"#	c #BABBBA",
"$	c #9F9F9F",
"%	c #A8A8A8",
"&	c #121212",
"*	c #D0D1D0",
"=	c #3C3C3C",
"-	c #8F908F",
";	c #6F6F6F",
">	c #454545",
",	c #BEBFBE",
"'	c #3F403F",
")	c #181818",
"!	c #AAABAA",
"~	c #444444",
"{	c #060606",
"                            ....",
"                           .....",
"                          ......",
"                         .......",
"                        ........",
"                       ........ ",
"                      ........  ",
"                     ........   ",
"                    ........    ",
"                   ........     ",
"                  ........      ",
"                 ........       ",
"                +@......        ",
"               #$%&.............",
"              *=.-;.............",
"             >,..',.............",
"            .',..',.............",
"           ..)!=.-;.............",
"          ....~#$%&.............",
"         .....{+~               ",
"        ........                ",
"       ........                 ",
"      ........                  ",
"     ........                   ",
"    ........                    ",
"   ........                     ",
"  ........                      ",
" ........                       ",
"........                        ",
".......                         ",
"......                          ",
".....                           "};
