/* XPM */
static const char * spdritem_lbr_xpm[] = {
"32 32 74 1",
" 	c None",
".	c #000000",
"+	c #5F0000",
"@	c #C60000",
"#	c #BF0000",
"$	c #5C0000",
"%	c #AC0000",
"&	c #110000",
"*	c #710000",
"=	c #AA0000",
"-	c #2B0000",
";	c #6A0000",
">	c #B10000",
",	c #8E0000",
"'	c #550000",
")	c #280000",
"!	c #960000",
"~	c #850000",
"{	c #640000",
"]	c #8D0000",
"^	c #B50000",
"/	c #660000",
"(	c #820000",
"_	c #390000",
":	c #B40000",
"<	c #700000",
"[	c #AB0000",
"}	c #B30000",
"|	c #2C0000",
"1	c #950000",
"2	c #530000",
"3	c #500000",
"4	c #C40000",
"5	c #8C0000",
"6	c #8F0000",
"7	c #410000",
"8	c #620000",
"9	c #BC0000",
"0	c #170000",
"a	c #690000",
"b	c #B20000",
"c	c #AE0000",
"d	c #250000",
"e	c #0F0000",
"f	c #910000",
"g	c #920000",
"h	c #890000",
"i	c #4C0000",
"j	c #670000",
"k	c #370000",
"l	c #420000",
"m	c #6D0000",
"n	c #290000",
"o	c #970000",
"p	c #940000",
"q	c #870000",
"r	c #520000",
"s	c #BD0000",
"t	c #8A0000",
"u	c #360000",
"v	c #BA0000",
"w	c #610000",
"x	c #830000",
"y	c #1B0000",
"z	c #5A0000",
"A	c #A20000",
"B	c #680000",
"C	c #240000",
"D	c #2D0000",
"E	c #480000",
"F	c #330000",
"G	c #260000",
"H	c #210000",
"I	c #560000",
"....            +@@@@@@@#$@@@@%&",
".....          .@@@@@@@@*=@@@@@@",
"......         -@@@@@@@@;>@@@@@@",
".......        ,@@@@@@@@'@@@@@@@",
"........      )@@@@@@@@!~@@@@@@@",
" ........     {@@@@@@@@'@@@@@@@@",
"  ........    ]@@@@@@@^/@@@@@@@(",
"   ........  _:@@@@@@@<[@@@@@@}|",
"    ........ 1@@@@@@@@'@@@@@@@= ",
"     ........=@@@@@@@!~@@@@@@@2 ",
"      ......34@@@@@@@56@@@@@@47 ",
"       .....8@@@@@@@9+@@@@@@@~  ",
"        ...0@@@@@@@@*=@@@@@@@)  ",
"         ..*@@@@@@@@ab@@@@@@cd  ",
"          ef@@@@@@@@'@@@@@@@*   ",
"          )@@@@@@@@gh@@@@@@@i   ",
"          j@@@@@@@@'@@@@@@@h    ",
"         k>@@@@@@@:j@@@@@@@'    ",
"         l@@@@@@@@mc@@@@@@bn    ",
"         o@@@@@@@@'@@@@@@@=     ",
"         =@@@@@@@pq@@@@@@@3     ",
"        rs@@@@@@@tf@@@@@@6      ",
"         uc@@@@@vw@@@@@@@x      ",
"          y}@@@@*=@@@@@@@)      ",
"           zA@@@B}@@@@@@[C      ",
"            l]@@'@@@@@@@r       ",
"             D[65@@@@@@@.       ",
"              EC@@@@@@@~        ",
"               .@@@@@@@'        ",
"                F>@@@@>G        ",
"                 Ho@@@I         ",
"                  F@@@l         "};
