/* XPM */
static const char * spdritem_sbr_xpm[] = {
"32 32 4 1",
" 	c None",
".	c #000000",
"+	c #DEDFDE",
"@	c #636163",
"                                ",
"                                ",
"                                ",
"                                ",
"                                ",
"                                ",
"                                ",
"                                ",
"                                ",
"                                ",
"                                ",
"                                ",
".......................+++++....",
"......................++@@@++...",
".....................++@@@@@++..",
".....................++@@@@@++..",
".....................++@@@@@++..",
"......................++@@@++...",
".......................+++++....",
"                                ",
"                                ",
"                                ",
"                                ",
"                                ",
"                                ",
"                                ",
"                                ",
"                                ",
"                                ",
"                                ",
"                                ",
"                                "};
