/* XPM */
static const char * spdritem_tnt_xpm[] = {
"32 32 81 1",
" 	c None",
".	c #840000",
"+	c #841B1B",
"@	c #842526",
"#	c #841010",
"$	c #000000",
"%	c #843839",
"&	c #846D6E",
"*	c #848284",
"=	c #845859",
"-	c #840808",
";	c #844A4B",
">	c #845A5C",
",	c #845254",
"'	c #844041",
")	c #844243",
"!	c #845D5E",
"~	c #847D7F",
"{	c #110000",
"]	c #846F71",
"^	c #843030",
"/	c #230000",
"(	c #840505",
"_	c #100000",
":	c #1B0000",
"<	c #260000",
"[	c #840B0B",
"}	c #844D4E",
"|	c #710000",
"1	c #5E0000",
"2	c #841516",
"3	c #846A6C",
"4	c #841313",
"5	c #790000",
"6	c #280000",
"7	c #842020",
"8	c #911A1A",
"9	c #DCB6B6",
"0	c #AA4E4E",
"a	c #846769",
"b	c #843233",
"c	c #760000",
"d	c #870505",
"e	c #962424",
"f	c #C88D8D",
"g	c #EDDBDB",
"h	c #DEBBBB",
"i	c #840D0D",
"j	c #842223",
"k	c #840303",
"l	c #847274",
"m	c #4B0000",
"n	c #8C1010",
"o	c #931F1F",
"p	c #BB7272",
"q	c #845051",
"r	c #EBD5D5",
"s	c #CD9797",
"t	c #A74949",
"u	c #B66868",
"v	c #D4A7A7",
"w	c #A23E3E",
"x	c #CA9292",
"y	c #B96D6D",
"z	c #9B2F2F",
"A	c #8E1515",
"B	c #C07D7D",
"C	c #B15E5E",
"D	c #842A2B",
"E	c #C38282",
"F	c #982A2A",
"G	c #890A0A",
"H	c #D9B1B1",
"I	c #E6CBCB",
"J	c #846264",
"K	c #400000",
"L	c #7C0000",
"M	c #841818",
"N	c #200000",
"O	c #847F81",
"P	c #150000",
"                                ",
"             .......            ",
"           ...+@@@@#...         ",
"$        ..#%%&****=%-..        ",
"$$$    ...;>*********,'...    $$",
"$$$$$ ..)!************~)... $$$$",
"$$$${..'~**************~]^..$$$$",
"$$$$/.%******************)(._$$$",
"$$:<.[}*******************'(|$$$",
"$$1..2;3*******************456$$",
"  |....7%%)****************,.1$ ",
"  ..8990..(@@@a******bb*****.c  ",
"  ..deefggh...i4j****4k4444l..  ",
"$m..deen..oggpeeo...q#.....]].m$",
"$m..89rstt...u99vtto.......]].m$",
"$m....wxxxyyyz..AxxByyC....''.m$",
"$m.';;D...yyyExx...wyypxxxF...m$",
"$m.]**l!!!...Ftt9990..GttHI9..m$",
"$m.#******]]'...eeefgg...Aee..m$",
"  ..************444-..gggpee... ",
"  ..J**************}@@...u99.51 ",
"  KL4*****************%%%M...1$ ",
"$$$|-}*******************J;[56$$",
"$$$N.[}*******************'(|$$$",
"$$$$..%******************)(._$$$",
"$$$$_...qO*************!...P$$$$",
"$$$$$ ...qJ***********!)... $$$$",
"$$$     ..[;J******J;;...     $$",
"$        ...M%%%%%%M...         ",
"            ........            ",
"                                ",
"                                "};
