/* XPM */
static const char * spdritem_ssl_xpm[] = {
"32 32 5 1",
" 	c None",
".	c #000000",
"+	c #FF0000",
"@	c #DEDFDE",
"#	c #636163",
"                                ",
"  .....                         ",
" .......                        ",
" .+++++.                        ",
" .+++++.                        ",
" .......                        ",
" .......                        ",
" .......                        ",
" .......                        ",
" .......                        ",
" .......                        ",
" .......                        ",
" .......    ....@@@@@...........",
" .......    ...@@###@@..........",
" .......    ..@@#####@@.........",
"  .....     ..@@#####@@.........",
"    .       ..@@#####@@.........",
"    .       ...@@###@@..........",
"    .       ....@@@@@...........",
"  .....                         ",
"  .....                         ",
"                                ",
"                                ",
"                                ",
"                                ",
"                                ",
"                                ",
"                                ",
"                                ",
"                                ",
"                                ",
"                                "};
