/* XPM */
static const char*tt_goto_xpm[]={
"16 16 2 1",
"# c #0000ff",
". c None",
"................",
"................",
"................",
"................",
".......#........",
".......##.......",
"..########...#..",
"..#########.###.",
"..#########.###.",
"..########...#..",
".......##.......",
".......#........",
"................",
"................",
"................",
"................"};
