/* XPM */
static const char*tt_left_step_xpm[]={
"16 16 2 1",
"# c #000000",
". c None",
"................",
"................",
"................",
".....#..........",
"....##..........",
"...###..........",
"..#####..##..##.",
".######..##..##.",
"..#####..##..##.",
"...###..........",
"....##..........",
".....#..........",
"................",
"................",
"................",
"................"};
