/* XPM */
static const char*tt_turn180_xpm[]={
"16 16 4 1",
"b c #000000",
"# c #800000",
". c None",
"a c #ffffff",
"................",
"................",
"................",
".##############.",
".aaaaaaaaaaaaaa.",
".##############.",
".aaaaaaaaaaaaaa.",
".##############.",
"................",
"..b..........b..",
".bbb........bbb.",
"b.b.b......b.b.b",
"..b..........b..",
"...b........b...",
"....bbbbbbbb....",
"................"};
