/* XPM */


static const char* viewnormalmode_xpm[] = {
"22 22 2 1",
" 	c None",
".	c #A5A2A5",
".           .         ",
".           .         ",
".           .         ",
".           .         ",
".           .         ",
".           .         ",
".           .         ",
"......................",
".           .         ",
".           .         ",
".           .         ",
".           .         ",
".           .         ",
".           .         ",
".           .         ",
"......................",
".           .         ",
".           .         ",
".           .         ",
".           .         ",
".           .         ",
".           .         "};
