/* XPM */
static const char * viewroute_xpm[] = {
"22 22 4 1",
" 	c None",
".	c #000000",
"+	c #FF0000",
"@	c #FFFF00",
"                      ",
"                      ",
"              ....... ",
"             ........ ",
"            ...       ",
"           ...        ",
"          ...         ",
" ........+++++++@@@@@ ",
" .......++++++++@@@@@ ",
"       +++            ",
"      +++             ",
" +++++++............. ",
" ++++++.............. ",
"          ...         ",
"           ...        ",
"            ...       ",
" @@@@@@@@@@@@@@@      ",
" @@@@@@@@@@@@@@@@     ",
"               @@@    ",
"                @@@@@ ",
"                 @@@@ ",
"                      "};
