/* XPM */
static const char *viewfeedback_xpm[]={
"22 22 4 1",
"# c #808080",
"a c #000000",
". c None",
"b c #ffffff",
".......##.............",
".......##.............",
".......##.............",
".......##.............",
".......##.............",
".......##.............",
"......aaaaaaaaaa......",
".....abbbbbbbbbba.....",
".....abababababba.....",
".....abbbbbbbbbba.....",
".....abbbbbbbbbba.....",
".....abbbbbbbbbba.....",
".....abbbbbbbbbba.....",
".....abbababababa.....",
".....abbbbbbbbbba.....",
"......aaaaaaaaaa......",
".......##.............",
".......##.............",
".......##.............",
".......##.............",
".......##.............",
".......##............."};
