/* XPM */
static const char * cursor_erase_m_xpm[] = {
"32 32 2 1",
" 	c None",
".	c #000000",
".                               ",
"..                              ",
"...                             ",
"....                            ",
".....                           ",
"......                          ",
".......                         ",
"........                        ",
".........                       ",
"..........                      ",
"...........                     ",
"............             .      ",
"........                ...     ",
"........             . .....    ",
"... .....           .........   ",
"..  .....          ...........  ",
".    .....        ............. ",
"     .....       ...............",
"      ...       ............... ",
"               ...............  ",
"              ...............   ",
"               ...............  ",
"              ...............   ",
"             ...............    ",
"            ...............     ",
"           ...............      ",
"           ..............       ",
"           .............        ",
"            ......... .         ",
"             .......            ",
"              .....             ",
"               ...              "};
