/* XPM */
static const char *cursor_fht_b_xpm[]={
"32 32 2 1",
"# c None",
". c #000000",
".###############################",
"..##############################",
".#.#############################",
".##.############################",
".###.###########################",
".####.##########################",
".#####.#########################",
".######.########################",
".#######.#######################",
".########.######################",
".#########.#####################",
".#####......####################",
".######.########################",
".##.###.########################",
".#.#.###.#######################",
"..##.###.#######################",
".####.###.######################",
"#####.###.######################",
"######...#######################",
"################################",
"################################",
"################################",
"################################",
"########.......#...##...#.......",
"########.#####.#.#.##.#.#.#####.",
"########.#.....#.#.##.#.#...#...",
"########.#.#####.#....#.###.#.##",
"########.#....##.######.###.#.##",
"########.####.##.#....#.###.#.##",
"########.#....##.#.##.#.###.#.##",
"########.#.#####.#.##.#.###.#.##",
"########...#####...##...###...##"};
