/* XPM */
static const char * daemondisconnect_xpm[] = {
"22 22 5 1",
" 	c None",
".	c #000000",
"+	c #C0C0C0",
"@	c #C00000",
"#	c #404040",
"                      ",
"........              ",
".++++++.              ",
".++++++.              ",
".++++++.              ",
".++++++.              ",
".++++++.              ",
".++++++.              ",
".++++++.              ",
".++++++.              ",
".++++++.              ",
".++++++.  @@@   @@@   ",
".++++++. @++@   @++@  ",
".++++++. @++@ @@@++@  ",
".+####+. @++@ @@@++@  ",
".++++++.@@++@   @++@@@",
".+####+. @++@ @@@++@  ",
".++++++. @++@ @@@++@  ",
".+####+. @++@   @++@  ",
".++++++.  @@@   @@@   ",
"........              ",
"                      "};
