/* XPM */
static const char*drehscheibe_st2_xpm[]={
"57 30 5 1",
"# c #808080",
"a c #000000",
". c None",
"c c #00c000",
"b c #ff0000",
".........................................................",
".........................................................",
".........................................................",
".........................................................",
".........................................................",
".........#aaaaaaaaaaaaaaaaa#.............................",
".........#aaaaaaaaaaaaaaaaa#.............................",
".........#aaaaaaaaaaaaaaaaa#.............................",
".........#aaaaaaaaaaaaaaaaa#.............................",
".........#ababababababababa#................a...aaaaaa...",
".........#aaaaaaaaaaaaaaaaa#......a..a.....aa...a........",
".........#aaaaaaaaaaaaaaaaa#......a..a....a.a...a........",
".........#acacacacacacacaca#.....a..a....a..a...a........",
".........#aaaaaaaaaaaaaaaaa#....aaaaaaa.....a...a........",
".........#aaaaaaaaaaaaaaaaa#.....a..a.......a...a........",
".........#ababababababababa#.....a..a.......a...aaaa.....",
".........#aaaaaaaaaaaaaaaaa#...aaaaaaa......a.......a....",
".........#aaaaaaaaaaaaaaaaa#.....a..a.......a........a...",
".........#acacacacacacacaca#....a..a........a........a...",
".........#aaaaaaaaaaaaaaaaa#....a..a........a........a...",
".........#aaaaaaaaaaaaaaaaa#................a........a...",
".........###################................a........a...",
".........###################................a.......a....",
".........###################..............aaaaa.aaaa.....",
".........###################.............................",
".........................................................",
".........................................................",
".........................................................",
".........................................................",
"........................................................."};
