/* XPM */
static const char * filenew_xpm[] = {
"22 22 9 1",
" 	c None",
".	c #000000",
"+	c #FFFFFF",
"@	c #2E2E2E",
"#	c #585858",
"$	c #5C5C5C",
"%	c #C0C0C0",
"&	c #878787",
"*	c #C2C2C2",
"                      ",
"    ..........        ",
"    .+++++++.@.       ",
"    .+######.$@.      ",
"    .+#%%%%%.&$@.     ",
"    .+#%%%%%.*&$@.    ",
"    .+#%%%%%.+*&$@.   ",
"    .+######.......   ",
"    .+#%%%%%%#%%%%.   ",
"    .+#%%%%%%#%%%%.   ",
"    .+#%%%%%%#%%%%.   ",
"    .+############.   ",
"    .+#%%%%%%#%%%%.   ",
"    .+#%%%%%%#%%%%.   ",
"    .+#%%%%%%#%%%%.   ",
"    .+############.   ",
"    .+#%%%%%%#%%%%.   ",
"    .+#%%%%%%#%%%%.   ",
"    .+#%%%%%%#%%%%.   ",
"    .+#%%%%%%#%%%%.   ",
"    ...............   ",
"                      "};
