/* XPM */
static const char * label_wgt_xpm[] = {
"21 9 3 1",
" 	c None",
".	c #000000",
"#	c #FFFFFF",
".....................",
".###################.",
".##.###.##...#.....#.",
".##.#.#.#.######.###.",
".##.#.#.#.#..###.###.",
".##.#.#.#.##.###.###.",
".###...###..####.###.",
".###################.",
"....................."};
