/* XPM */
static const char * layoutitemerasemode_xpm[] = {
"22 22 16 1",
" 	c None",
".	c #CDD0D0",
"+	c #B1B7BE",
"@	c #B1B7BC",
"#	c #2357C0",
"$	c #3462C2",
"%	c #8E9BB7",
"&	c #1E5DD3",
"*	c #3F69B6",
"=	c #6C84B6",
"-	c #1F4496",
";	c #154DAA",
">	c #EFF1EE",
",	c #636363",
"'	c #000100",
")	c #6A6C69",
"                      ",
"            .         ",
"            ++@       ",
"           #$%+@      ",
"           &&&*++@    ",
"          ##&&&#=+    ",
"         #&&&#&&&*    ",
"         &#&&&#&&-    ",
"        #&&&$&&&#     ",
"        &#&&&&&&-     ",
"       #&&&&&$&;      ",
"       *&&$&&&&       ",
"      ++%$&&&&;       ",
"     >@+++=$&#        ",
"     +++++++*-        ",
"    >+++++++.         ",
"     ++++++,          ",
"      ++++,.          ",
" ''')   ++, )'''''''' ",
" '')))'')  ))''')))'' ",
" '''''''''''''''''''' ",
"                      "};
