/* XPM */
static const char*layoutstop_xpm[]={
"22 22 5 1",
"b c #808080",
"c c #a0a0a0",
"# c #000000",
". c None",
"a c #ff0000",
"......................",
"......................",
"......................",
"......................",
".......########.......",
".......#......#.......",
"..######......######..",
".......#......#.......",
".......########.......",
"..........##..........",
"..........##..........",
"..........##..........",
"........aaaaaa........",
".......abbbbbbac......",
".......ab.....ac......",
".......ab.....ac......",
"........aaaaaac.......",
".........bbbbb........",
"......................",
"......................",
"......................",
"......................"};
