/* XPM */
static const char *layoutnotrot_xpm[] = {
/* width height num_colors chars_per_pixel */
" 22 22 5 1",
/* colors */
"# c #000000",
". c None",
"b c #585858",
"c c #ffffff",
"d c #ff0000",
/* pixels */
"......................",
"......................",
"........#######.......",
".......###b#####......",
".......##bbb####......",
".......###b#####......",
".......#########......",
".......##d###d##......",
".......#ddd#ddd#......",
".......##d###d##......",
".......#########......",
".......######b##......",
".......######b##......",
".......###b#####......",
".......###b#####......",
".......#########......",
".......###b#####......",
".......##bbb####......",
".......###b#####......",
".......#########......",
"........#######.......",
"......................"};
