/* XPM */
static const char*signal_hss_st3_xpm[]={
"57 30 7 1",
"b c #00ff00",
"# c #000000",
"e c #ffff00",
". c None",
"a c #585858",
"d c #ffffff",
"c c #ff0000",
".........................................................",
".........................................................",
".........................................................",
".....#####.........#####.........#####.........#####.....",
"....#######.......#######.......#######.......#######....",
"...#########.....#########.....#########.....#########...",
"...#########.....#########.....#########.....#########...",
"...###a#####.....###b#####.....###b#####.....###a#####...",
"...##aaa####.....##bbb####.....##bbb####.....##aaa####...",
"...###a#####.....###b#####.....###b#####.....###a#####...",
"...#########.....#########.....#########.....#########...",
"...##c###c##.....##a###a##.....##a###a##.....##c###a##...",
"...#ccc#ccc#.....#aaa#aaa#.....#aaa#aaa#.....#ccc#aaa#...",
"...##c###c##.....##a###a##.....##a###a##.....##c###a##...",
"...#########.....#########.....#########.....#########...",
"...#########.....#########.....#########.....#########...",
"...######a##.....######a##.....######a##.....######d##...",
"...######a##.....######a##.....######a##.....######d##...",
"...###a#####.....###a#####.....###a#####.....###d#####...",
"...###a#####.....###a#####.....###a#####.....###d#####...",
"...#########.....#########.....#########.....#########...",
"...#########.....#########.....#########.....#########...",
"...###a#####.....###a#####.....###e#####.....###a#####...",
"...##aaa####.....##aaa####.....##eee####.....##aaa####...",
"...###a#####.....###a#####.....###e#####.....###a#####...",
"...#########.....#########.....#########.....#########...",
"...#########.....#########.....#########.....#########...",
".........................................................",
".........................................................",
"........................................................."};
