/* XPM */
static const char * spdritem_lcr_xpm[] = {
"32 32 33 1",
" 	c None",
".	c #848284",
"+	c #242324",
"@	c #303030",
"#	c #5F5E5F",
"$	c #727072",
"%	c #212121",
"&	c #000000",
"*	c #2C2B2C",
"=	c #504F50",
"-	c #6A696A",
";	c #171717",
">	c #1C1B1C",
",	c #6A686A",
"'	c #706E70",
")	c #969596",
"!	c #898889",
"~	c #5C5A5C",
"{	c #444444",
"]	c #DFE0BA",
"^	c #E1E09F",
"/	c #B1B2A8",
"(	c #121212",
"_	c #181818",
":	c #B7B7AA",
"<	c #E5E23C",
"[	c #E7E300",
"}	c #E1E08F",
"|	c #6F6F6F",
"1	c #3F403F",
"2	c #DFE0BE",
"3	c #E4E23F",
"4	c #BEBFBE",
"            .........           ",
"            .........           ",
"            .........           ",
"            .........           ",
"    +@      .........     @+    ",
"    #$%     .........    %$#    ",
"   &..*     .........    *..&   ",
"    =-      .........     -=    ",
"    ;>      .........     >;    ",
"            .........           ",
"            .........           ",
"            .........           ",
"            ,,'))!,,~           ",
"&&&&&&&&&&&&&&{]^/(&&&&&&&&&&&&&",
"&&&&&&&&&&&&&_:<[}|&&&&&&&&&&&&&",
"&&&&&&&&&&&&&12[[34&&&&&&&&&&&&&",
"&&&&&&&&&&&&&12[[34&&&&&&&&&&&&&",
"&&&&&&&&&&&&&_:<[}|&&&&&&&&&&&&&",
"&&&&&&&&&&&&&&{]^/(&&&&&&&&&&&&&",
"            ,,'))!,,~           ",
"            .........           ",
"            .........           ",
"            .........           ",
"            .........           ",
"            .........           ",
"            .........           ",
"            .........           ",
"            .........           ",
"            .........           ",
"            .........           ",
"            .........           ",
"            .........           "};
