/* XPM */
static const char * spdritem_txt_xpm[] = {
"32 32 122 2",
"  	c None",
". 	c #FFFFFF",
"+ 	c #E4E6E3",
"@ 	c #A1A3A0",
"# 	c #868885",
"$ 	c #858784",
"% 	c #878986",
"& 	c #A4A6A3",
"* 	c #F9FAF9",
"= 	c #DADCD9",
"- 	c #7F807E",
"; 	c #565755",
"> 	c #363835",
", 	c #1E201D",
"' 	c #464745",
") 	c #565855",
"! 	c #828481",
"~ 	c #8F908E",
"{ 	c #999B98",
"] 	c #DEE0DD",
"^ 	c #D4D6D3",
"/ 	c #7B7C7A",
"( 	c #2F312E",
"_ 	c #9EA09D",
": 	c #D4D5D3",
"< 	c #DFE1DE",
"[ 	c #E3E5E2",
"} 	c #5A5C59",
"| 	c #666865",
"1 	c #F7F7F6",
"2 	c #939592",
"3 	c #383A37",
"4 	c #BCBEBB",
"5 	c #B3B5B2",
"6 	c #656764",
"7 	c #5D5F5C",
"8 	c #979996",
"9 	c #E2E4E1",
"0 	c #DEDFDD",
"a 	c #838582",
"b 	c #9B9D9B",
"c 	c #DBDDDA",
"d 	c #646563",
"e 	c #A7A9A6",
"f 	c #272926",
"g 	c #9B9D9A",
"h 	c #B1B3B0",
"i 	c #424441",
"j 	c #646663",
"k 	c #414340",
"l 	c #898B88",
"m 	c #DDDFDC",
"n 	c #494B48",
"o 	c #AAACA9",
"p 	c #5C5E5B",
"q 	c #444643",
"r 	c #D6D8D5",
"s 	c #CBCDCA",
"t 	c #4C4E4B",
"u 	c #C7C9C6",
"v 	c #848683",
"w 	c #3C3E3B",
"x 	c #ACAEAB",
"y 	c #BBBDBA",
"z 	c #5F615E",
"A 	c #D1D3D0",
"B 	c #D3D4D2",
"C 	c #575856",
"D 	c #343633",
"E 	c #212320",
"F 	c #A5A7A4",
"G 	c #E8EAE7",
"H 	c #575956",
"I 	c #FCFDFC",
"J 	c #6F716E",
"K 	c #191B18",
"L 	c #3F413E",
"M 	c #434542",
"N 	c #2A2C29",
"O 	c #535552",
"P 	c #CACCC9",
"Q 	c #F5F7F4",
"R 	c #1F211F",
"S 	c #464845",
"T 	c #FCFCFC",
"U 	c #ECEEEB",
"V 	c #595A58",
"W 	c #676965",
"X 	c #7C7E7B",
"Y 	c #9A9C98",
"Z 	c #B2B4B1",
"` 	c #B0B2AE",
" .	c #C4C6C3",
"..	c #E1E3E0",
"+.	c #717370",
"@.	c #212321",
"#.	c #222422",
"$.	c #C8CAC7",
"%.	c #676966",
"&.	c #8E908D",
"*.	c #B0B2AF",
"=.	c #EAECE9",
"-.	c #989A97",
";.	c #3E3F3D",
">.	c #4D4F4C",
",.	c #E0E2DF",
"'.	c #F1F1F0",
").	c #C6C8C5",
"!.	c #D8DAD7",
"~.	c #7E7F7D",
"{.	c #4C4D4B",
"].	c #CFD1CE",
"^.	c #70726F",
"/.	c #7A7B79",
"(.	c #DCDEDB",
"_.	c #9FA19E",
":.	c #4B4D4A",
"<.	c #919391",
"[.	c #F3F4F3",
"}.	c #B9BBB8",
"|.	c #F0F1EF",
"1.	c #C0C2BF",
"                                                                ",
"                                                                ",
"                                                                ",
"                                                                ",
"                                                                ",
"                                                                ",
"                                                                ",
"                                                                ",
"  . . . . . . . . . . . . . . . . . . . . . . . . . . . . . .   ",
"  . . . . . . . . . . . . . . . . . . . . . . . . . . . . . .   ",
"  . . + @ # $ $ # % & . . . . . . . . . . . . . . * . . . . .   ",
"  . . = - ; > , ' ) ! . . . . . . . . . . . . . . ~ { . . . .   ",
"  . . . ] ^ / ( _ : < . . . . . . . . . . . . . [ } | 1 . . .   ",
"  . . . . . 2 3 4 . . . 5 6 7 8 9 0 a b 1 c d e @ f ( g * . .   ",
"  . . . . . 2 3 4 . . h i ) j k l m # n o p q r s k t u . . .   ",
"  . . . . . 2 3 4 . . v w x y z p A B C D E F . G H 6 I . . .   ",
"  . . . . . 2 3 4 . G J K L M N O P Q _ R S T . U V W . . . .   ",
"  . . . . . 2 3 4 . 1 X w Y Z `  .U ..+.@.#.$.. U V %.. . . .   ",
"  . . . . . 2 3 4 . . g L &.*.@  .=.-.;.% n >.,.'.d >.).. . .   ",
"  . . . . . F } u . . !.~.{.{.H e ].^./.(.Z i o . _.:.<.[.. .   ",
"  . . . . . 9 P * . . . +  .}.s * |.s (.. . 1.!.. 1 $.!.. . .   ",
"  . . . . . . . . . . . . . . . . . . . . . . . . . . . . . .   ",
"  . . . . . . . . . . . . . . . . . . . . . . . . . . . . . .   ",
"  . . . . . . . . . . . . . . . . . . . . . . . . . . . . . .   ",
"                                                                ",
"                                                                ",
"                                                                ",
"                                                                ",
"                                                                ",
"                                                                ",
"                                                                ",
"                                                                "};
