/* XPM */
static const char * spdritem_ltr_xpm[] = {
"32 32 71 1",
" 	c None",
".	c #330000",
"+	c #C60000",
"@	c #420000",
"#	c #210000",
"$	c #970000",
"%	c #560000",
"&	c #B10000",
"*	c #260000",
"=	c #000000",
"-	c #550000",
";	c #480000",
">	c #240000",
",	c #850000",
"'	c #2D0000",
")	c #AB0000",
"!	c #8F0000",
"~	c #8C0000",
"{	c #8D0000",
"]	c #520000",
"^	c #5A0000",
"/	c #A20000",
"(	c #680000",
"_	c #B30000",
":	c #1B0000",
"<	c #280000",
"[	c #360000",
"}	c #AE0000",
"|	c #830000",
"1	c #BD0000",
"2	c #8A0000",
"3	c #910000",
"4	c #AA0000",
"5	c #940000",
"6	c #870000",
"7	c #500000",
"8	c #6D0000",
"9	c #B20000",
"0	c #290000",
"a	c #370000",
"b	c #B40000",
"c	c #670000",
"d	c #890000",
"e	c #920000",
"f	c #4C0000",
"g	c #0F0000",
"h	c #710000",
"i	c #690000",
"j	c #250000",
"k	c #170000",
"l	c #B50000",
"m	c #660000",
"n	c #620000",
"o	c #C40000",
"p	c #410000",
"q	c #960000",
"r	c #530000",
"s	c #950000",
"t	c #390000",
"u	c #700000",
"v	c #2C0000",
"w	c #820000",
"x	c #640000",
"y	c #8E0000",
"z	c #2B0000",
"A	c #6A0000",
"B	c #B70000",
"C	c #630000",
"D	c #5F0000",
"E	c #AC0000",
"F	c #110000",
"                  .+++@         ",
"                 #$+++%         ",
"                .&++++&*        ",
"               =+++++++-        ",
"              ;>+++++++,        ",
"             ')!~+++++++=       ",
"            @{++-+++++++]       ",
"           ^/+++(_++++++)>      ",
"          :_++++_(+++++++<      ",
"         [}++++++-+++++++|      ",
"        ]1+++++++23++++++!      ",
"         4+++++++56+++++++7     ",
"         $++++++++-+++++++4     ",
"         @++++++++8}++++++90    ",
"         a&+++++++bc+++++++-    ",
"          c++++++++-+++++++d    ",
"          <++++++++ed+++++++f   ",
"          g3++++++++-+++++++h   ",
"         ==h++++++++i9++++++}j  ",
"        ===k++++++++lm+++++++<  ",
"       =====n++++++++-+++++++,  ",
"      ======7o+++++++~!++++++op ",
"     ========4+++++++q,+++++++r ",
"    ======== s++++++++-+++++++4 ",
"   ========  tb+++++++u)++++++_v",
"  ========    {+++++++lm+++++++w",
" ========     x++++++++-++++++++",
"========      <++++++++q,+++++++",
"=======        y++++++++-+++++++",
"======         z++++++++A&++++++",
"=====          =++++++++BC++++++",
"====            D++++++++-++++EF"};
