/* XPM */
static const char * spdritem_tal_xpm[] = {
"32 32 4 1",
" 	c None",
".	c #848284",
"+	c #000000",
"@	c #FFFFFF",
"................................",
"................................",
"................................",
"................................",
"................................",
"................................",
"................................",
"...............+++..............",
".............++...++............",
".............+.....+............",
"............+.......+...........",
"............+.......+...........",
"............+.......+...........",
".............+.....+............",
".............++...++............",
"...............+++..............",
"................................",
"................................",
".........+++++++++++++++........",
".........+@@@@@@@@@@@@@+........",
".........+@++++@+@@@@@@+........",
".........+@+@@@@@@+@++@+........",
".........+@+++@@+@++@+@+........",
".........+@+@@@@+@+@@+@+........",
".........+@++++@+@+@@+@+........",
".........+@@@@@@@@@@@@@+........",
".........+++++++++++++++........",
"................................",
"................................",
"................................",
"................................",
"................................"};
