/* XPM */
static const char * spdritem_bld_xpm[] = {
"32 32 5 1",
" 	c None",
".	c #FF0000",
"+	c #BD0000",
"@	c #CC0000",
"#	c #000000",
"                                ",
"                                ",
"                                ",
"                                ",
"                                ",
"                                ",
"                                ",
"                                ",
"                                ",
"                                ",
"                                ",
"           ..........           ",
"          +@@@@@@@@@@+          ",
"################################",
"################################",
"################################",
"################################",
"################################",
"################################",
"          +@@@@@@@@@@+          ",
"           ..........           ",
"                                ",
"                                ",
"                                ",
"                                ",
"                                ",
"                                ",
"                                ",
"                                ",
"                                ",
"                                ",
"                                "};
