/* XPM */
static const char * spdritem_ltl_xpm[] = {
"32 32 71 1",
" 	c None",
".	c #420000",
"+	c #C60000",
"@	c #330000",
"#	c #560000",
"$	c #970000",
"%	c #210000",
"&	c #260000",
"*	c #B10000",
"=	c #550000",
"-	c #000000",
";	c #850000",
">	c #240000",
",	c #480000",
"'	c #8C0000",
")	c #8F0000",
"!	c #AB0000",
"~	c #2D0000",
"{	c #520000",
"]	c #8D0000",
"^	c #B30000",
"/	c #680000",
"(	c #A20000",
"_	c #5A0000",
":	c #280000",
"<	c #1B0000",
"[	c #830000",
"}	c #AE0000",
"|	c #360000",
"1	c #910000",
"2	c #8A0000",
"3	c #BD0000",
"4	c #500000",
"5	c #870000",
"6	c #940000",
"7	c #AA0000",
"8	c #290000",
"9	c #B20000",
"0	c #6D0000",
"a	c #670000",
"b	c #B40000",
"c	c #370000",
"d	c #890000",
"e	c #4C0000",
"f	c #920000",
"g	c #710000",
"h	c #0F0000",
"i	c #250000",
"j	c #690000",
"k	c #660000",
"l	c #B50000",
"m	c #170000",
"n	c #620000",
"o	c #410000",
"p	c #C40000",
"q	c #530000",
"r	c #960000",
"s	c #950000",
"t	c #2C0000",
"u	c #700000",
"v	c #390000",
"w	c #820000",
"x	c #640000",
"y	c #8E0000",
"z	c #6A0000",
"A	c #2B0000",
"B	c #630000",
"C	c #B70000",
"D	c #110000",
"E	c #AC0000",
"F	c #5F0000",
"         .+++@                  ",
"         #+++$%                 ",
"        &*++++*@                ",
"        =+++++++-               ",
"        ;+++++++>,              ",
"       -+++++++')!~             ",
"       {+++++++=++].            ",
"      >!++++++^/+++(_           ",
"      :+++++++/^++++^<          ",
"      [+++++++=++++++}|         ",
"      )++++++12+++++++3{        ",
"     4+++++++56+++++++7         ",
"     7+++++++=++++++++$         ",
"    89++++++}0++++++++.         ",
"    =+++++++ab+++++++*c         ",
"    d+++++++=++++++++a          ",
"   e+++++++df++++++++:          ",
"   g+++++++=++++++++1h          ",
"  i}++++++9j++++++++g--         ",
"  :+++++++kl++++++++m---        ",
"  ;+++++++=++++++++n-----       ",
" op++++++)'+++++++p4------      ",
" q+++++++;r+++++++7--------     ",
" 7+++++++=++++++++s --------    ",
"t^++++++!u+++++++bv  --------   ",
"w+++++++kl+++++++]    --------  ",
"++++++++=++++++++x     -------- ",
"+++++++;r++++++++:      --------",
"+++++++=++++++++y        -------",
"++++++*z++++++++A         ------",
"++++++BC++++++++-          -----",
"DE++++=++++++++F            ----"};
