/* XPM */
static const char * spdritem_taw_xpm[] = {
"32 32 8 1",
" 	c None",
".	c #0000C6",
"+	c #000000",
"@	c #848284",
"#	c #FFFFFF",
"$	c #0000AE",
"%	c #0000A4",
"&	c #0000BC",
"................................",
"................................",
"................................",
"................................",
"................................",
"................................",
"................................",
"................................",
"................................",
"...............+++..............",
".............++@@@++............",
".............+@@@@@+............",
"............+@@@@@@@+...........",
"............+@@@@@@@+...........",
"............+@@@@@@@+...........",
".............+@@@@@+............",
".............++@@@++............",
"...............+++..............",
"................................",
"................................",
"......+++++++++++++++++++++.....",
"......+###################+.....",
"......+##+###+##+++#+++++#+.....",
"......+##+#+#+#+######+###+.....",
"......+##+#+#+#+#++###+###+.....",
"......+##+#+#+#+##+###+###+.....",
"......+###+++###++####+###+.....",
"......+###################+.....",
"......+++++++++++++++++++++.....",
"................................",
"..........$%%%%%%%%%%%&.........",
"................................"};
