/* XPM */
static const char *tt_right_step_xpm[] = {
/* width height num_colors chars_per_pixel */
"    16    16        2            1",
/* colors */
"# c #000000",
". c None",
/* pixels */
"................",
"................",
"................",
"..........#.....",
"..........##....",
"..........###...",
".##..##..#####..",
".##..##..######.",
".##..##..#####..",
"..........###...",
"..........##....",
"..........#.....",
"................",
"................",
"................",
"................"
};
