/* XPM */
static const char* viewrouteeditmode_xpm[] = {
"22 22 4 1",
" 	c None",
".	c #0000CC",
"+	c #000000",
"@	c #585858",
".           .         ",
".           .         ",
".           .  ++     ",
".           . @+    + ",
".           . @+    + ",
".           . @++  ++ ",
".             @+++++@ ",
"............ @+++++@ .",
".           @+++@@    ",
".          @+++       ",
".         @+++        ",
".        @+++         ",
".       @+++          ",
".      @+++ .         ",
".     @+++  .         ",
"... @++++ ............",
".  +++++@   .         ",
". @+  ++@   .         ",
". +    +@   .         ",
". +    +@   .         ",
".     ++    .         ",
".           .         "};
