/* XPM */
static const char *viewkeyboard_xpm[]={
"22 22 6 1",
"a c None",
". c None",
"d c #00ff00",
"b c #303030",
"# c #808080",
"c c #ff0000",
"......................",
"......................",
"..#################a..",
"..#################b..",
"..##ccc##ccc##ccc##b..",
"..##ccc##ccc##ccc##b..",
"..#################b..",
"..##ddd##ddd##ddd##b..",
"..##ddd##ddd##ddd##b..",
"..#################b..",
"..#################b..",
"..#################b..",
"..##ccc##ccc##ccc##b..",
"..##ccc##ccc##ccc##b..",
"..#################b..",
"..##ddd##ddd##ddd##b..",
"..##ddd##ddd##ddd##b..",
"..#################b..",
"..#################b..",
"..abbbbbbbbbbbbbbbbb..",
"......................",
"......................"};
