/* XPM */
static const char * button_red_xpm[] = {
"9 7 3 1",
" 	c None",
".	c #DCDCDC",
"+	c #FF0000",
"  .....  ",
" ..+++.. ",
"..+++++..",
"..+++++..",
"..+++++..",
" ..+++.. ",
"  .....  "};
