/* XPM */
static const char *cursor_uzs_b_xpm[]={
"32 32 2 1",
"# c None",
". c #000000",
".###############################",
"..#######################...####",
".#.#####################.....###",
".##.###################..###..##",
".###.##################.#####.##",
".####.#################.#####.##",
".#####.################..###..##",
".######.###############.......##",
".#######.##############.......##",
".########.#############.......##",
".#########.############.......##",
".#####......###########.......##",
".######.###############.......##",
".##.###.###############.......##",
".#.#.###.##############.......##",
"..##.###.##############.......##",
".####.###.#############.......##",
"#####.###.#############.......##",
"######...###############.....###",
"#########################...####",
"##########################.#####",
"##########################.#####",
"########################.....###",
"########################.....###",
"################################",
"###########..........###########",
"##########...##..##...##########",
"#########.#..........#.#########",
"########..#.########.#..########",
"........#..##########..#........",
"##..##....############....##..##",
".........##############........."};
