/* XPM */
static const char *cursor_zhs_m_xpm[]={
"32 32 2 1",
"# c None",
". c #000000",
".###############################",
"..#######################...####",
"...#####################.....###",
"....###################.......##",
".....##################.......##",
"......#################.......##",
".......################.......##",
"........###############.......##",
".........##############.......##",
"..........#############.......##",
"...........############.......##",
"............###########.......##",
"........###############.......##",
"........###############.......##",
"...#.....##############.......##",
"..##.....##############.......##",
".####.....#############.......##",
"#####.....#############.......##",
"######...###############.....###",
"#########################...####",
"##########################.#####",
"##########################.#####",
"########################.....###",
"########################.....###",
"################################",
"...............#################",
"#..##..##..##...################",
"...............#.###############",
"##############.#..##############",
"###############..#..............",
"################....##..##..##..",
"#################..............."};
