/* XPM */
static const char * daemonconnect_xpm[] = {
"22 22 5 1",
" 	c None",
".	c #000000",
"+	c #C0C0C0",
"@	c #008000",
"#	c #404040",
"                      ",
"........              ",
".++++++.              ",
".++++++.              ",
".++++++.              ",
".++++++.              ",
".++++++.              ",
".++++++.              ",
".++++++.              ",
".++++++.              ",
".++++++.              ",
".++++++.    @@@@@     ",
".++++++.   @++@++@    ",
".++++++.   @++@++@    ",
".+####+.   @++@++@    ",
".++++++.@@@@++@++@@@@ ",
".+####+.   @++@++@    ",
".++++++.   @++@++@    ",
".+####+.   @++@++@    ",
".++++++.    @@@@@     ",
"........              ",
"                      "};
