/* XPM */
static const char* editoptions_xpm[] = {
"22 22 5 1",
" 	c None",
".	c #585858",
"+	c #000000",
"@	c #404040",
"#	c #000080",
"                      ",
"                      ",
"   ..          ++     ",
"  .@@.        .+    + ",
"  .@@@        .+    + ",
"   .@@.       .++  ++ ",
"     .@.      .+++++. ",
"      .@.    .+++++.  ",
"       .@.  .+++..    ",
"        .@ .+++       ",
"          .+++        ",
"         .+++         ",
"        .+++@.        ",
"       .+++ .@##      ",
"      .+++   ####     ",
"    .++++    #####    ",
"   +++++.     #####   ",
"  .+  ++.      #####  ",
"  +    +.       ####  ",
"  +    +.        ##   ",
"      ++              ",
"                      "};
