/* XPM */
static const char* editfind_xpm[] = {
"22 22 7 1",
" 	c None",
".	c #0000C0",
"+	c #FFFFFF",
"@	c #000000",
"#	c #C0C0C0",
"$	c #808080",
"%	c #FF0000",
"                      ",
" .................... ",
" .++++++++++++++++++. ",
" .................... ",
" @#######$#######$##@ ",
" @#######$#######$##@ ",
" @#######$##%%%##$##@ ",
" @#######$#%%%%%#$##@ ",
" @$$$$$$$$#%%#%%#$$$@ ",
" @%%%%%%%$####%%#$##@ ",
" @%#####%$###%%##$##@ ",
" @%#####%$##%%###$##@ ",
" @%%%%%%%$##%%###$##@ ",
" @$$$$$$$$$####$$$$$@ ",
" @#######$##%%###$##@ ",
" @#######$##%%###$##@ ",
" @#######$#######$##@ ",
" @#######$#######$##@ ",
" @$$$$$$$$$$$$$$$$$$@ ",
" @#######$#######$##@ ",
" @@@@@@@@@@@@@@@@@@@@ ",
"                      "};
