/* XPM */
static const char*entkoppler_st2_xpm[]={
"57 30 5 1",
"b c #808080",
"# c #000000",
". c None",
"c c #ffffff",
"a c #ff0000",
".........................................................",
".........................................................",
".........................................................",
"...................................#.....................",
"........##########.................#.....................",
".......############................#.....................",
"......##############.............#.#.#...................",
"............##....................###....................",
"............##.....................#.....................",
"............##...........................................",
"............##...........................................",
"............#.....................aaa...bbb..............",
"...........#......................aaa...bbb..............",
"..........#.......................aaa...bbb..............",
"..........#.###................#######################...",
"..........##..#................#ccccccccccccccccccccc#...",
"...........#..#................#ccccccccccccccccccccc#...",
"..........#.##.................#ccccccccccccccccccccc#...",
"..........#....................#ccc####ccc####cc#cc#c#...",
"..........####.................#ccc#cc##cc#ccccc#c##c#...",
"..........##..#................#ccc#ccc#cc#ccccc#c#cc#...",
"..........##..#................#ccc#ccc#cc###ccc###cc#...",
"..........#.###................#ccc#cc##cc#ccccc#c##c#...",
"..........#....................#ccc####ccc####cc#cc#c#...",
"..........#....................#ccccccccccccccccccccc#...",
"..........#....................#ccccccccccccccccccccc#...",
"......##############...........#######################...",
"......##############.....................................",
".........................................................",
"........................................................."};
