/* XPM */
static const char * label_hagt_xpm[] = {
"23 9 3 1",
" 	c None",
".	c #000000",
"#	c #FFFFFF",
".......................",
".#####################.",
".#.##.##..##...#.....#.",
".#.##.###.#.######.###.",
".#....#...#.#..###.###.",
".#.##.#.#.#.##.###.###.",
".#.##.#...##..####.###.",
".#####################.",
"......................."};
