/* XPM */
static const char * label_wht_xpm[] = {
"20 9 3 1",
" 	c None",
".	c #000000",
"+	c #FFFFFF",
"....................",
".++++++++++++++++++.",
".+.+++.+.++.+.....+.",
".+.+.+.+.++.+++.+++.",
".+.+.+.+....+++.+++.",
".+.+.+.+.++.+++.+++.",
".++...++.++.+++.+++.",
".++++++++++++++++++.",
"...................."};
