/* XPM */
static const char * label_fht_xpm[] = {
"19 9 3 1",
" 	c None",
".	c #000000",
"#	c #FFFFFF",
"...................",
".#################.",
".#....#.##.#.....#.",
".#.####.##.###.###.",
".#...##....###.###.",
".#.####.##.###.###.",
".#.####.##.###.###.",
".#################.",
"..................."};
