/* XPM */
static const char * layoutitempaintmode_xpm[] = {
"22 22 17 1",
" 	c None",
".	c #000200",
"+	c #047F01",
"@	c #009500",
"#	c #605B5A",
"$	c #289524",
"%	c #B75F05",
"&	c #00BE00",
"*	c #787975",
"=	c #808B00",
"-	c #B58742",
";	c #74B272",
">	c #9C9A9E",
",	c #DEA000",
"'	c #ABC7AB",
")	c #C3BAB3",
"!	c #E8E8E8",
"                      ",
"                      ",
"                )     ",
"               >!>)   ",
"              '')**!  ",
"              @&;*)   ",
"             ;&&@+    ",
"             @&+$;    ",
"            $&@@$     ",
"            @&@@'     ",
"           $&@@$      ",
"          '&&$$       ",
"          +&@@;       ",
"          ,=+$        ",
"         ),%%'        ",
"         -,%)         ",
"         *-           ",
"         #            ",
" .................... ",
" .***...****...***... ",
" .................... ",
"                      "};
