/* XPM */
static const char * layoutitemselectmode_xpm[] = {
"22 22 5 1",
" 	c None",
".	c #CC0000",
"+	c #000000",
"@	c #FFFFFF",
"#	c #333333",
"                      ",
"   .               .  ",
"   .               .  ",
" .................... ",
"   .               .  ",
"   .               .  ",
"   .               .  ",
"   .               .  ",
"   .       +       .  ",
"   .       ++      .  ",
"   .       +@+     .  ",
"   .       +@@+    .  ",
"   .       +@@@+   .  ",
" ......... +@@@@+ ... ",
"   .       +@@@@@+    ",
"   .       +@@@+++#   ",
"           +@+@@      ",
"           ++ #@+     ",
"           +  +@+     ",
"              #@@+    ",
"               +#     ",
"                      "};
