/* XPM */
static const char *layoutstart_xpm[]={
"22 22 4 1",
"a c #00ff00",
"# c #000000",
". c None",
"b c #585858",
"......................",
"......................",
"......................",
"......###########.....",
"......####a#a####.....",
"......##a#####a##.....",
"......###########.....",
"......#a#######a#.....",
"......###########.....",
"......#a#######a#.....",
"......###########.....",
"......##a#####a##.....",
"......####a#a####.....",
"......###########.....",
"..........bbb.........",
"..........bbb.........",
"..........bbb.........",
"..........bbb.........",
"..........bbb.........",
"..........bbb.........",
"......................",
"......................"};
