/* XPM */
static const char * route_edit_xpm[] = {
"22 22 25 1",
" 	c None",
".	c #211E19",
"+	c #000000",
"@	c #120F0C",
"#	c #473E32",
"$	c #AA3939",
"%	c #FF0000",
"&	c #605240",
"*	c #7D2A2A",
"=	c #AF8B5F",
"-	c #3D2614",
";	c #1C1109",
",	c #4F3017",
"'	c #0F0904",
")	c #CC9457",
"!	c #A16A35",
"~	c #5A371A",
"]	c #D5974F",
"^	c #CD9351",
"/	c #402713",
"(	c #5D503F",
"_	c #C0976C",
":	c #787878",
"<	c #9F9F9F",
"[	c #FFFF00",
"                      ",
"                      ",
"                      ",
"                      ",
"                 .+   ",
"                @#$+  ",
" +++++++++%%%% +&$$*+ ",
" ++++++++%%%% +&=$*-; ",
"        %%%  +&=)=,'  ",
"       %%%  +&=)!~+   ",
"      %%%  +&=]!~+    ",
" %%%%%%%+ +&=]!~+ +++ ",
" %%%%%%++ &=^!/+ ++++ ",
"          (_!~+       ",
"         ((#(+        ",
"        :+((<         ",
" [[[[[[[[([[[[[       ",
" [[[[[[[[[[[[[[[      ",
"              [[[     ",
"               [[[[[[ ",
"                [[[[[ ",
"                      "};
