/* XPM */
static const char * route_start_xpm[] = {
"22 22 57 1",
" 	c None",
".	c #FF2F2F",
"+	c #FFC0C0",
"@	c #FFC6C6",
"#	c #FF4C4C",
"$	c #FFCDCD",
"%	c #FFFFFF",
"&	c #FFE0E0",
"*	c #FF4646",
"=	c #FF3737",
"-	c #FF5A5A",
";	c #FF3535",
">	c #007900",
",	c #FF4747",
"'	c #FF8080",
")	c #FFDCDC",
"!	c #FF4343",
"~	c #008000",
"{	c #FF4242",
"]	c #FFEEEE",
"^	c #FFFAFA",
"/	c #FF7474",
"(	c #FFB0B0",
"_	c #FFB8B8",
":	c #FF4141",
"<	c #FF4949",
"[	c #FFDEDE",
"}	c #FF3E3E",
"|	c #FFE7E7",
"1	c #FFD3D3",
"2	c #FF3838",
"3	c #107800",
"4	c #B55934",
"5	c #FF3030",
"6	c #A6582B",
"7	c #FFE3E3",
"8	c #A0A0A0",
"9	c #FFD8D8",
"0	c #FF9696",
"a	c #FFD4D4",
"b	c #88571C",
"c	c #600B0B",
"d	c #9D5625",
"e	c #087C00",
"f	c #000000",
"g	c #064506",
"h	c #005400",
"i	c #262626",
"j	c #004400",
"k	c #005200",
"l	c #00B300",
"m	c #00DD00",
"n	c #006B00",
"o	c #002B00",
"p	c #002A00",
"q	c #003800",
"r	c #004D00",
"             .+@@#    ",
"            .$%%%&*   ",
"            =%%%%%-   ",
"            ;%%%%%-   ",
"     >>    ,'@%%%)!   ",
"     >~   {]^/(__:    ",
"     ~~  <[%)}        ",
"     ~~ <|%12         ",
"     ~34|%)5          ",
"     ~6[%)}           ",
"     ,]%15            ",
"    #78)2             ",
"   *&%9}              ",
"    0ab               ",
"    cde               ",
"    f~~  ghi          ",
"    fj~kflmf          ",
"     n~ofpqf          ",
"     ~~rfff           ",
"    >~~>fff           ",
"    >>>>fff           ",
"     >>>              "};
