/* XPM */
static const char * route_wfunlock_xpm[] = {
"20 20 4 1",
".	c None",
"+	c #000000",
"@	c #FFFF00",
"#	c #808080",
"....................",
"....................",
"....................",
"....................",
"....................",
".....++++++++++.....",
".....+@@@@####+.....",
".....+@@@@####+.....",
".....+@@@@####+.....",
".....+@@@@####+.....",
".....+@@@@####+.....",
".....+@@@@####+.....",
".....+@@@@####+.....",
".....+@@@@####+.....",
".....++++++++++.....",
"....................",
"....................",
"....................",
"....................",
"...................."};
