/* XPM */
static const char *route_editmode_xpm[]={
"22 22 5 1",
"# c None",
". c None",
"a c #000000",
"b c #585858",
"c c #a0a0a0",
"......................",
"......................",
".............#aa......",
".............ba....a..",
".............ba....a#.",
".............baa..aa#.",
".............baaaaab#.",
"............baaaaab#..",
"...........baaabb#....",
"..........baaa........",
".........baaa.........",
"........baaa..........",
".......baaa...........",
"......baaa............",
"....#baaa.............",
"..#baaaa..............",
".#aaaaab#.............",
".ba..aab..............",
".ac...ab..............",
".ac...ab..............",
".....aa...............",
"......................"};
