/* XPM */
static const char * signal_w_xpm[] = {
"9 11 3 1",
" 	c None",
".	c #000000",
"+	c #FF8000",
"     ....",
"  ...+++.",
"..++++...",
".++...   ",
" .+++.   ",
"  ..++.  ",
" .+++.   ",
".++...   ",
"..++++...",
"  ...+++.",
"     ...."};
