/* XPM */
static const char*signal_hs_st2_xpm[]={
"57 30 6 1",
"b c #00ff00",
"# c #000000",
"d c #ffff00",
". c None",
"a c #585858",
"c c #ff0000",
".........................................................",
".........................................................",
".........................................................",
".....#####.......................#####...................",
"....#######.....................#######..................",
"...#########...................#########.................",
"...#########...................#########.................",
"...#########...................#########.................",
"...#########...................#########.................",
"...#########...................#########.................",
"...#########...................#########.................",
"...##a###a##...................##a###b##.................",
"...#aaa#aaa#...................#aaa#bbb#.................",
"...##a###a##...................##a###b##.................",
"...#########...................#########.................",
"...#########...................#########.................",
"...#########...................#########.................",
"...#########...................#########.................",
"...#########...................#########.................",
"...#########...................#########.................",
"...#########...................#########.................",
"...#########...................#########.................",
"...##c###a##...................##a###d##.................",
"...#ccc#aaa#...................#aaa#ddd#.................",
"...##c###a##...................##a###d##.................",
"...#########...................#########.................",
"...#########...................#########.................",
".........................................................",
".........................................................",
"........................................................."};
