/* XPM */
static const char *signal_vs_st2_xpm[]={
"57 30 5 1",
". c None",
"# c #000000",
"b c #00ff00",
"a c #808080",
"c c #ffff00",
".........................................................",
".........................................................",
".........................................................",
".........................................................",
".........................................................",
".........................................................",
".........................................................",
".........................................................",
".........................................................",
".........................................................",
"........#####.........................#####..............",
".......#######.......................#######.............",
"......##a###a##.....................##a###b##............",
".....##aaa#aaa#....................##aaa#bbb#............",
"....####a###a##...................####a###b##............",
"...###########...................###########.............",
"..###########...................###########..............",
"..##c###c###....................##c###a###...............",
"..#ccc#ccc#.....................#ccc#aaa#................",
"..##c###c#......................##c###a#.................",
"...######........................######..................",
"....####..........................####...................",
".........................................................",
".........................................................",
".........................................................",
".........................................................",
".........................................................",
".........................................................",
".........................................................",
"........................................................."};
