/* XPM */
static const char*signal_hs_st1_xpm[]={
"57 30 5 1",
"c c #00ff00",
"# c #000000",
". c None",
"b c #585858",
"a c #ff0000",
".........................................................",
".........................................................",
".........................................................",
".....#####.........#####.................................",
"....#######.......#######................................",
"...#########.....#########...............................",
"...#########.....#########...............................",
"...#########.....#########...............................",
"...#########.....#########...............................",
"...#########.....#########...............................",
"...#########.....#########...............................",
"...#########.....#########...............................",
"...#########.....#########...............................",
"...#########.....#########...............................",
"...#########.....#########...............................",
"...#########.....#########...............................",
"...#########.....#########...............................",
"...#########.....#########...............................",
"...#########.....#########...............................",
"...#########.....#########...............................",
"...#########.....#########...............................",
"...#########.....#########...............................",
"...##a###b##.....##b###c##...............................",
"...#aaa#bbb#.....#bbb#ccc#...............................",
"...##a###b##.....##b###c##...............................",
"...#########.....#########...............................",
"...#########.....#########...............................",
".........................................................",
".........................................................",
"........................................................."};
