/* XPM */
static const char*signal_hss_st1_xpm[]={
"57 30 7 1",
"b c #00ff00",
"# c #000000",
"e c #ffff00",
". c None",
"a c #585858",
"d c #ffffff",
"c c #ff0000",
".........................................................",
".........................................................",
".........................................................",
".....#####.........#####.......................#####.....",
"....#######.......#######.....................#######....",
"...#########.....#########...................#########...",
"...#########.....#########...................#########...",
"...###a#####.....###b#####...................###a#####...",
"...##aaa####.....##bbb####...................##aaa####...",
"...###a#####.....###b#####...................###a#####...",
"...#########.....#########...................#########...",
"...##c###c##.....##a###a##...................##c###a##...",
"...#ccc#ccc#.....#aaa#aaa#...................#ccc#aaa#...",
"...##c###c##.....##a###a##...................##c###a##...",
"...#########.....#########...................#########...",
"...#########.....#########...................#########...",
"...######a##.....######a##...................######d##...",
"...######a##.....######a##...................######d##...",
"...###a#####.....###a#####...................###d#####...",
"...###a#####.....###a#####...................###d#####...",
"...#########.....#########...................#########...",
"...#########.....#########...................#########...",
"...###a#####.....###a#####...................###a#####...",
"...##aaa####.....##aaa####...................##aaa####...",
"...###a#####.....###a#####...................###a#####...",
"...#########.....#########...................#########...",
"...#########.....#########...................#########...",
".........................................................",
".........................................................",
"........................................................."};
