/* XPM */
static const char * spdritem_zpr_xpm[] = {
"32 32 3 1",
" 	c None",
".	c #000000",
"+	c #848284",
"                    ........... ",
"                    ....+.+.... ",
"                    ..+.....+.. ",
"                    ........... ",
"                    .+.......+. ",
"                    ........... ",
"                    .+.......+. ",
"                    ........... ",
"                    ..+.....+.. ",
"                    ....+.+.... ",
"                    ........... ",
"                         .      ",
"....................     .      ",
"....................     .      ",
"....................     .      ",
"....................     .      ",
"....................   .....    ",
"....................   .....    ",
"....................            ",
"                                ",
"                                ",
"                                ",
"                                ",
"                                ",
"                                ",
"                                ",
"                                ",
"                                ",
"                                ",
"                                ",
"                                ",
"                                "};
