/* XPM */
static const char * spdritem_mdc_xpm[] = {
"32 32 14 1",
" 	c None",
".	c #000000",
"+	c #FF0000",
"@	c #0000FF",
"#	c #020000",
"$	c #000004",
"%	c #0C0000",
"&	c #000018",
"*	c #180000",
"=	c #00002B",
"-	c #0F0000",
";	c #00001E",
">	c #030000",
",	c #000007",
"                                ",
"                                ",
"                                ",
"                                ",
"                                ",
"                                ",
"                                ",
"                                ",
"                                ",
"                .               ",
"             .......            ",
"            ..     ..           ",
"   +       ..       ..          ",
" +++++    ..         ..    @@@@ ",
"   +      #   .. ..   #         ",
"         +%   .....   %@        ",
" +++++++++*   . . .   *@@@@@@@@ ",
"         +-           -@        ",
"          >           >         ",
"          ..  . . .  ..         ",
"           ..       ..          ",
"            ..     ..           ",
"             .......            ",
"                                ",
"                                ",
"                                ",
"                                ",
"                                ",
"                                ",
"                                ",
"                                ",
"                                "};
