/* XPM */
static const char * spdritem_tau_xpm[] = {
"32 32 5 1",
" 	c None",
".	c #00A200",
"+	c #000000",
"@	c #848284",
"#	c #FFFFFF",
"................................",
"................................",
"................................",
"................................",
"................................",
"................................",
"................................",
"................................",
"...............+++..............",
".............++@@@++............",
".............+@@@@@+............",
"............+@@@@@@@+...........",
"............+@@@@@@@+...........",
"............+@@@@@@@+...........",
".............+@@@@@+............",
".............++@@@++............",
"...............+++..............",
"................................",
"................................",
".....+++++++++++++++++++++++....",
".....+#####################+....",
".....+#+##+##++##+++#+++++#+....",
".....+#+##+#+###+######+###+....",
".....+#+##+#++##+#++###+###+....",
".....+#+##+#+###+##+###+###+....",
".....+##++##+####++####+###+....",
".....+#####################+....",
".....+++++++++++++++++++++++....",
"................................",
"................................",
"................................",
"................................"};
