/* XPM */
static const char * spdritem_trt_xpm[] = {
"32 32 5 1",
" 	c None",
".	c #840000",
"+	c #FFFFFF",
"@	c #848284",
"#	c #000000",
"                                ",
"                                ",
"                                ",
"    ...+.+....+.+....+.+.....   ",
"    ...+.+....+.+....+.+.....   ",
"    ...+.+....+.+....+.+.....   ",
"    ..@@@@@@.+.+.@@@@@@@@@@..   ",
"    ..@@@@@@.+.+.@@@@@@@@@@..   ",
"    ..@@@@@@.+.+.@@@@@@@@@@..   ",
"    ..@@@@@@.+.+.@@@@@@@@@@..   ",
"    ..@@@@@@.+.+.@@@@@@@@@@..   ",
"    ..@@@@@@.+.+.@@@@@@@@@@..   ",
"    ..@@@@@@.+.+.@@@@@@@@@@..   ",
"####.@@@@@@..+.+.@@@@@@@@@@..###",
"####.@@@@@@..+.+.@@@@@@@@@@..###",
"####.@@@@@@..+.+.@@@@@@@@@@..###",
"####.@@@@@@..+.+.@@@@@@@@@@..###",
"####.@@@@@@..+.+.@@@@@@@@@@..###",
"####.@@@@@@..+.+.@@@@@@@@@@..###",
"####.@@@@@@..+.+.@@@@@@@@@@..###",
"    ..@@@@@@.+.+.@@@@@@@@@@..   ",
"    ..@@@@@@.+.+.@@@@@@@@@@..   ",
"    ..@@@@@@.+.+.@@@@@@@@@@..   ",
"    ..@@@@@@.+.+.@@@@@@@@@@..   ",
"    ..@@@@@@.+.+.@@@@@@@@@@..   ",
"    ..@@@@@@.+.+.@@@@@@@@@@..   ",
"    ..@@@@@@.+.+.@@@@@@@@@@..   ",
"    ...+.+....+.+....+.+.....   ",
"    ...+.+....+.+....+.+.....   ",
"    ...+.+....+.+....+.+.....   ",
"                                ",
"                                "};
