/* XPM */
static const char * spdritem_twr_xpm[] = {
"32 32 16 1",
" 	c None",
".	c #000000",
"+	c #2C2D2C",
"@	c #202020",
"#	c #444444",
"$	c #BABBBA",
"%	c #9F9F9F",
"&	c #A8A8A8",
"*	c #121212",
"=	c #181818",
"-	c #AAABAA",
";	c #3C3C3C",
">	c #8F908F",
",	c #6F6F6F",
"'	c #3F403F",
")	c #BEBFBE",
"                            ....",
"                           .....",
"                          ......",
"                         .......",
"                        ........",
"                       ........ ",
"                      ........  ",
"                     ........   ",
"                    ........    ",
"                   ........     ",
"                  ........      ",
"                 ........       ",
"                +@......        ",
"..............#$%&*.............",
".............=-;.>,.............",
".............')..').............",
".............')..').............",
".............=-;.>,.............",
"..............#$%&*.............",
"                +@......        ",
"                 ........       ",
"                  ........      ",
"                   ........     ",
"                    ........    ",
"                     ........   ",
"                      ........  ",
"                       ........ ",
"                        ........",
"                         .......",
"                          ......",
"                           .....",
"                            ...."};
