/* XPM */
static const char * spdritem_taf_xpm[] = {
"32 32 7 1",
" 	c None",
".	c #00A200",
"+	c #000000",
"@	c #848284",
"#	c #009D00",
"$	c #009F00",
"%	c #FFFFFF",
"................................",
"................................",
"................................",
"................................",
"................................",
"................................",
"................................",
"...............+++..............",
".............++@@@++............",
".............+@@@@@+............",
"............+@@@@@@@+......##$..",
"............+@@@@@@@+...........",
"............+@@@@@@@+...........",
".............+@@@@@+............",
".............++@@@++............",
"...............+++..............",
"................................",
"................................",
".......+++++++++++++++++++......",
".......+%%%%%%%%%%%%%%%%%+......",
".......+%++++%+%%+%+++++%+......",
".......+%+%%%%+%%+%%%+%%%+......",
".......+%+++%%++++%%%+%%%+......",
".......+%+%%%%+%%+%%%+%%%+......",
".......+%+%%%%+%%+%%%+%%%+......",
".......+%%%%%%%%%%%%%%%%%+......",
".......+++++++++++++++++++......",
"................................",
"................................",
"................................",
"................................",
"................................"};
