/* XPM */
static const char * spdritem_adr_xpm[] = {
"32 32 13 1",
" 	c None",
".	c #000100",
"+	c #100001",
"@	c #1A0001",
"#	c #2E0000",
"$	c #420000",
"%	c #590000",
"&	c #700000",
"*	c #820000",
"=	c #9E0000",
"-	c #BD0000",
";	c #DD0000",
">	c #FA0000",
"                                ",
"                                ",
"                                ",
"                                ",
"                                ",
"                                ",
"                                ",
"                                ",
"  ............................  ",
"  ............................  ",
"  ...@$@..+###$@.+##@....@@...  ",
"  ..$;>-#.%>>>>&+*;>-#..#==@..  ",
"  ..--*;=.&;&&&##>=&>=.&->=@..  ",
"....>*.=;@*=....%;%.--@;>>=+....",
"...#>&.*;#=;>;&.@$@.--+.@-=@....",
"...#;&.*;%=;=;;$..+%>&..@--+....",
"...#>&.*;#$$.%;&.+&;*@..@-=+....",
"....>*.*;##@.$;&.&;=+...@-=@....",
"....--%;-#-;$=;$#>-%$#..@-=@....",
"  ..&;>;$.&;>>*+%>>>>-#.@-=+..  ",
"  ..+$&$..+$&$@.#%&&%$+.+$$+..  ",
"  ............................  ",
"  ............................  ",
"                                ",
"                                ",
"                                ",
"                                ",
"                                ",
"                                ",
"                                ",
"                                ",
"                                "};
