/* XPM */
static const char * spdritem_lsr_xpm[] = {
"32 32 6 1",
" 	c None",
".	c #070000",
"+	c #110000",
"@	c #550000",
"#	c #C60000",
"$	c #000000",
"                .+++++++.++++++.",
"                @#######@######@",
"                @#######@######@",
"                @#######@######@",
"                @#######@######@",
"                @#######@######@",
"                @#######@######@",
"                @#######@######@",
"                @#######@######@",
"                @#######@######@",
"                @#######@######@",
"                @#######@######@",
"                @#######@######@",
"$$$$$$$$$$$$$$$$@#######@######@",
"$$$$$$$$$$$$$$$$@#######@######@",
"$$$$$$$$$$$$$$$$@#######@######@",
"$$$$$$$$$$$$$$$$@#######@######@",
"$$$$$$$$$$$$$$$$@#######@######@",
"$$$$$$$$$$$$$$$$@#######@######@",
"                @#######@######@",
"                @#######@######@",
"                @#######@######@",
"                @#######@######@",
"                @#######@######@",
"                @#######@######@",
"                @#######@######@",
"                @#######@######@",
"                @#######@######@",
"                @#######@######@",
"                @#######@######@",
"                @#######@######@",
"                .+++++++.++++++."};
