/* XPM */
static const char * spdritem_bur_xpm[] = {
"32 32 15 1",
" 	c None",
".	c #000000",
"+	c #AA0000",
"@	c #300000",
"#	c #B20000",
"$	c #C60000",
"%	c #510000",
"&	c #A60000",
"*	c #0C0000",
"=	c #550000",
"-	c #180000",
";	c #610000",
">	c #A20000",
",	c #1C0000",
"'	c #390000",
"                                ",
"                                ",
"                                ",
"                                ",
"                                ",
"    ......................      ",
"    ..++++++++++++++++++..      ",
"    .+@#$$$$$$$$$$$$$$#@+.      ",
"    .+#%&$$$$$$$$$$$$&%#+.      ",
"*===-+$&;>$$$$$$$$$$>;&$+.      ",
",$$$'+$$>;&$$$$$$$$&;>$$+.      ",
",$$$'+$$$&%#$$$$$$#%&$$$+.      ",
",$$$'+$$$$#@$$$$$$@#$$$$+.      ",
",$$$'+$$$$$$@#$$#@$$$$$$+.      ",
",$$$'+$$$$$$#%&&%#$$$$$$+.      ",
",$$$'+$$$$$$$&;;&$$$$$$$+.      ",
",$$$'+$$$$$$$&;;&$$$$$$$+.      ",
",$$$'+$$$$$$#%&&%#$$$$$$+.      ",
",$$$'+$$$$$$@#$$#@$$$$$$+.      ",
",$$$'+$$$$#@$$$$$$@#$$$$+.      ",
",$$$'+$$$&%#$$$$$$#%&$$$+.      ",
",$$$'+$$>;&$$$$$$$$&;>$$+.      ",
"*===-+$&;>$$$$$$$$$$>;&$+.      ",
"    .+#%&$$$$$$$$$$$$&%#+.      ",
"    .+@#$$$$$$$$$$$$$$#@+.      ",
"    ..++++++++++++++++++..      ",
"    ......................      ",
"                                ",
"                                ",
"                                ",
"                                ",
"                                "};
