/* XPM */
static const char * spdritem_lbl_xpm[] = {
"32 32 74 1",
" 	c None",
".	c #110000",
"+	c #AC0000",
"@	c #C60000",
"#	c #5C0000",
"$	c #BF0000",
"%	c #5F0000",
"&	c #000000",
"*	c #AA0000",
"=	c #710000",
"-	c #B10000",
";	c #6A0000",
">	c #2B0000",
",	c #550000",
"'	c #8E0000",
")	c #850000",
"!	c #960000",
"~	c #280000",
"{	c #640000",
"]	c #820000",
"^	c #660000",
"/	c #B50000",
"(	c #8D0000",
"_	c #2C0000",
":	c #B30000",
"<	c #AB0000",
"[	c #700000",
"}	c #B40000",
"|	c #390000",
"1	c #950000",
"2	c #530000",
"3	c #410000",
"4	c #C40000",
"5	c #8F0000",
"6	c #8C0000",
"7	c #500000",
"8	c #BC0000",
"9	c #620000",
"0	c #170000",
"a	c #250000",
"b	c #AE0000",
"c	c #B20000",
"d	c #690000",
"e	c #910000",
"f	c #0F0000",
"g	c #4C0000",
"h	c #890000",
"i	c #920000",
"j	c #670000",
"k	c #370000",
"l	c #290000",
"m	c #6D0000",
"n	c #420000",
"o	c #970000",
"p	c #870000",
"q	c #940000",
"r	c #8A0000",
"s	c #BD0000",
"t	c #520000",
"u	c #830000",
"v	c #610000",
"w	c #BA0000",
"x	c #360000",
"y	c #1B0000",
"z	c #240000",
"A	c #680000",
"B	c #A20000",
"C	c #5A0000",
"D	c #2D0000",
"E	c #480000",
"F	c #260000",
"G	c #330000",
"H	c #560000",
"I	c #210000",
".+@@@@#$@@@@@@@%            &&&&",
"@@@@@@*=@@@@@@@@&          &&&&&",
"@@@@@@-;@@@@@@@@>         &&&&&&",
"@@@@@@@,@@@@@@@@'        &&&&&&&",
"@@@@@@@)!@@@@@@@@~      &&&&&&&&",
"@@@@@@@@,@@@@@@@@{     &&&&&&&& ",
"]@@@@@@@^/@@@@@@@(    &&&&&&&&  ",
"_:@@@@@@<[@@@@@@@}|  &&&&&&&&   ",
" *@@@@@@@,@@@@@@@@1 &&&&&&&&    ",
" 2@@@@@@@)!@@@@@@@*&&&&&&&&     ",
" 34@@@@@@56@@@@@@@47&&&&&&      ",
"  )@@@@@@@%8@@@@@@@9&&&&&       ",
"  ~@@@@@@@*=@@@@@@@@0&&&        ",
"  ab@@@@@@cd@@@@@@@@=&&         ",
"   =@@@@@@@,@@@@@@@@ef          ",
"   g@@@@@@@hi@@@@@@@@~          ",
"    h@@@@@@@,@@@@@@@@j          ",
"    ,@@@@@@@j}@@@@@@@-k         ",
"    lc@@@@@@bm@@@@@@@@n         ",
"     *@@@@@@@,@@@@@@@@o         ",
"     7@@@@@@@pq@@@@@@@*         ",
"      5@@@@@@er@@@@@@@st        ",
"      u@@@@@@@vw@@@@@bx         ",
"      ~@@@@@@@*=@@@@:y          ",
"      z<@@@@@@:A@@@BC           ",
"       t@@@@@@@,@@(n            ",
"       &@@@@@@@65<D             ",
"        )@@@@@@@zE              ",
"        ,@@@@@@@&               ",
"        F-@@@@-G                ",
"         H@@@oI                 ",
"         n@@@G                  "};
