/* XPM */
static const char * transfertable_xpm[] = {
"48 27 4 1",
" 	c None",
".	c #800000",
"#	c #FFFFFF",
"+	c #808080",
"...#.#....#.#....#.#....#.#....#.#....#.#.......",
"...#.#....#.#....#.#....#.#....#.#....#.#.......",
"...#.#....#.#....#.#....#.#....#.#....#.#.......",
"..++++++.#.#.+++++++++++++++++++++++++++++++++..",
"..++++++.#.#.+++++++++++++++++++++++++++++++++..",
"..++++++.#.#.+++++++++++++++++++++++++++++++++..",
"..++++++.#.#.+++++++++++++++++++++++++++++++++..",
"..++++++.#.#.+++++++++++++++++++++++++++++++++..",
"..++++++.#.#.+++++++++++++++++++++++++++++++++..",
"..++++++.#.#.+++++++++++++++++++++++++++++++++..",
".++++++..#.#.+++++++++++++++++++++++++++++++++..",
".++++++..#.#.+++++++++++++++++++++++++++++++++..",
".++++++..#.#.+++++++++++++++++++++++++++++++++..",
".++++++..#.#.+++++++++++++++++++++++++++++++++..",
".++++++..#.#.+++++++++++++++++++++++++++++++++..",
".++++++..#.#.+++++++++++++++++++++++++++++++++..",
".++++++..#.#.+++++++++++++++++++++++++++++++++..",
"..++++++.#.#.+++++++++++++++++++++++++++++++++..",
"..++++++.#.#.+++++++++++++++++++++++++++++++++..",
"..++++++.#.#.+++++++++++++++++++++++++++++++++..",
"..++++++.#.#.+++++++++++++++++++++++++++++++++..",
"..++++++.#.#.+++++++++++++++++++++++++++++++++..",
"..++++++.#.#.+++++++++++++++++++++++++++++++++..",
"..++++++.#.#.+++++++++++++++++++++++++++++++++..",
"...#.#....#.#....#.#....#.#....#.#....#.#.......",
"...#.#....#.#....#.#....#.#....#.#....#.#.......",
"...#.#....#.#....#.#....#.#....#.#....#.#......."};
