/* XPM */
static const char * viewtrainnumber_xpm[] = {
"22 22 17 1",
" 	c None",
".	c #000200",
"+	c #131512",
"@	c #1B1D1A",
"#	c #2D2E2C",
"$	c #484947",
"%	c #FF0000",
"&	c #676966",
"*	c #7D7F7C",
"=	c #868885",
"-	c #8D8F8C",
";	c #9A9B98",
">	c #ABADAA",
",	c #B2B4B1",
"'	c #BFC1BE",
")	c #CDCFCC",
"!	c #FAFCF9",
"                      ",
"  ...............     ",
" .................    ",
"  ................    ",
"   ...   ...   ...    ",
"   ...   ...   ...    ",
"   ...   ...   ...    ",
"  ....................",
" .....................",
" .....................",
" !!!)!!!!)!!!!!!)!)!!.",
" !)+@#!,.+&!)+$=.@.&!.",
" !*-!$>*'!+))=$-*!#>!.",
" !!!!#'!!).!!>$!!)+!!.",
" !!!$$!!)##!!,$!!&*!!.",
" !!;#!!!!!#'!>$!!.)!!.",
" !'+)!!&,!@)!,$!;$!!!.",
" !$...;'+.&!!>$!#;!!!.",
" !!!!!!!!!!!!!!!!!!!!.",
" $#.......%%%.......%%",
" *=$.....%%%%%.....%%%",
"        %%%%%%%   %%%%"};
