/* XPM */
static const char *viewclock_xpm[]={
"22 22 7 1",
"e c None",
". c None",
"a c #000000",
"c c #303030",
"b c #a0a0a0",
"d c #ff0000",
"# c #ffffff",
"......................",
"......................",
"..##################..",
"..########a#########..",
"..####a###a###a#####..",
"..#####a##a#ba######..",
"..##a#######c###a###..",
"..###a#####c###a####..",
"..#########c########..",
"..########c#########..",
"..#aaa####cccc#aaa##..",
"..#######d##########..",
"..######d###########..",
"..###a#d#######a####..",
"..##a#d#########a###..",
"..###d#a##a##a######..",
"..####a###a###a#####..",
"..########a#########..",
"..##################..",
"..##################..",
"......................",
"......................"};
